<?xml version="1.0" encoding="utf-8"?>
<!-- Svg Vector Icons : http://www.onlinewebfonts.com/icon -->
<!DOCTYPE svg PUBLIC "-//W3C//DTD SVG 1.1//EN" "http://www.w3.org/Graphics/SVG/1.1/DTD/svg11.dtd">
<svg version="1.1" xmlns="http://www.w3.org/2000/svg" xmlns:xlink="http://www.w3.org/1999/xlink" x="0px" y="0px" viewBox="0 0 1000 1000" enable-background="new 0 0 1000 1000" xml:space="preserve">
<metadata> Svg Vector Icons : http://www.onlinewebfonts.com/icon </metadata>
<g><path d="M10,500c0,270.6,219.4,490,490,490s490-219.4,490-490S770.6,10,500,10S10,229.4,10,500z"/><path d="M331,297.3L331,297.3v405.4c0,9.4,7.6,17,17,17h304c9.4,0,17-7.6,17-17V297.3c0-9.4-7.6-17-17-17H348C338.6,280.3,331,287.9,331,297.3L331,297.3z M280.3,297.3c0-37.4,30.2-67.7,67.7-67.7h304c37.4,0,67.7,30.2,67.7,67.7v405.4c0,37.4-30.2,67.7-67.7,67.7H348c-37.4,0-67.7-30.2-67.7-67.7V297.3z M109.4,514.8l69.6,95.8c8.2,11.3,24,13.9,35.4,5.6c11.3-8.2,13.8-24.1,5.6-35.4l-59-81.1l59-81.1c8.2-11.3,5.8-27.1-5.6-35.4c-11.3-8.2-27.2-5.7-35.4,5.6l-69.6,95.8c-3.6,4.9-5.1,10.7-4.8,16.3C104.7,505.6,106.3,510.5,109.4,514.8z M895.8,514.8l-69.6,95.8c-8.2,11.3-24,13.9-35.4,5.6c-11.3-8.2-13.8-24.1-5.6-35.4l59-81.1l-59-81.1c-8.2-11.3-5.8-27.1,5.6-35.4c11.3-8.2,27.2-5.7,35.4,5.6l69.6,95.8c3.6,4.9,5.1,10.7,4.8,16.3C900.5,505.6,898.9,510.5,895.8,514.8z"/></g>
</svg>